<svg width="94" height="82" viewBox="0 0 94 82" fill="none" xmlns="http://www.w3.org/2000/svg">
<g clip-path="url(#clip0_1_2)">
<path d="M11.39 62C11.4935 61.9182 11.5797 61.8167 11.6438 61.7015C11.7079 61.5862 11.7486 61.4594 11.7634 61.3283C11.7783 61.1972 11.7671 61.0645 11.7305 60.9378C11.6939 60.8111 11.6325 60.6929 11.55 60.59C11.36 60.35 -7.44999 36.42 10.28 18.59C29.55 -0.780001 48 -0.15 56.94 8.65C59.0713 10.743 60.3897 13.5251 60.66 16.5C55.22 17.64 54.77 22.15 54.31 26.91L54.2 28C53.8165 29.9196 52.7508 31.6354 51.2 32.83L51.14 32.88C49.462 34.3124 47.6109 35.5286 45.63 36.5C43.9701 36.0445 42.2208 36.0252 40.5512 36.4439C38.8817 36.8626 37.3485 37.7051 36.1 38.89C34.96 40.09 32.71 43.44 36.5 48.54C39.03 51.93 44.05 54.54 49.86 57.48C59.35 62.33 71.15 68.37 77.26 80.71C77.3159 80.8317 77.3957 80.9409 77.4946 81.0312C77.5935 81.1215 77.7095 81.191 77.8358 81.2355C77.9621 81.2801 78.096 81.2989 78.2297 81.2907C78.3634 81.2826 78.494 81.2476 78.6139 81.188C78.7339 81.1284 78.8406 81.0453 78.9278 80.9437C79.0149 80.842 79.0808 80.7239 79.1215 80.5963C79.1622 80.4687 79.1768 80.3342 79.1645 80.2009C79.1522 80.0675 79.1133 79.938 79.05 79.82C72.65 66.89 60.52 60.69 50.77 55.7C45.18 52.84 40.35 50.37 38.1 47.35C36.01 44.54 35.82 42.1 37.54 40.28C39.54 38.13 43.93 37.45 46.15 38.93C48.88 40.75 52.15 41.5 55.29 42.23C57.3733 42.5905 59.4095 43.1842 61.36 44C73.54 49.6 78.23 49.12 84.17 48.51C85.17 48.41 86.17 48.31 87.27 48.23C90.82 47.97 93.1 46.07 93.35 43.16C93.4009 41.4006 92.8394 39.678 91.7616 38.2865C90.6837 36.8949 89.1563 35.9207 87.44 35.53C82.78 34.36 68.29 21.84 62.73 16.78C62.19 12.49 60.9 9.68 58.34 7.17C48.69 -2.3 29.09 -3.21 8.85001 17.17C-10.08 36.26 9.78001 61.59 10 61.84C10.1647 62.0431 10.4025 62.1737 10.6624 62.2036C10.9222 62.2335 11.1834 62.1604 11.39 62ZM87.13 46.29C86.01 46.37 84.97 46.48 83.98 46.58C78.12 47.18 73.88 47.58 62.23 42.25C60.1539 41.337 57.9796 40.666 55.75 40.25C52.995 39.7593 50.3288 38.8593 47.84 37.58C49.362 36.7415 50.7988 35.7569 52.13 34.64C56.13 35.06 58.75 36.94 61.8 39.12C65.37 41.68 69.42 44.57 76.31 45.26C78.31 45.46 80.04 45.54 81.61 45.54C84.8476 45.6633 88.0772 45.1397 91.11 44C90.58 45.31 89.19 46.14 87.13 46.29ZM87 37.52C88.0234 37.7685 88.9606 38.2891 89.7123 39.0267C90.4639 39.7643 91.0022 40.6915 91.27 41.71C90 42.44 86 44.2 76.51 43.25C70.15 42.62 66.5 40 63 37.48C60.23 35.48 57.59 33.63 53.94 32.88C55.1628 31.5873 55.9587 29.9501 56.22 28.19L56.33 27.11C56.84 21.9 57.33 19.11 61.5 18.39C64.23 20.89 81.15 36.07 87 37.52Z" fill="black"/>
<path d="M7.84 28.09C7.71394 28.0515 7.58151 28.0384 7.45034 28.0512C7.31917 28.0641 7.19184 28.1028 7.07568 28.1651C6.95951 28.2273 6.8568 28.312 6.77345 28.4141C6.6901 28.5162 6.62775 28.6337 6.59 28.76C3.7 38.29 6.86 47.8 10 54.11C10.0591 54.2275 10.1408 54.3323 10.2403 54.4182C10.3399 54.5042 10.4554 54.5697 10.5803 54.6111C10.7052 54.6524 10.837 54.6687 10.9682 54.6591C11.0994 54.6495 11.2275 54.6141 11.345 54.555C11.4625 54.4959 11.5673 54.4142 11.6532 54.3147C11.7392 54.2151 11.8047 54.0996 11.8461 53.9747C11.8874 53.8498 11.9037 53.718 11.8941 53.5868C11.8845 53.4556 11.8491 53.3275 11.79 53.21C8.79 47.21 5.79 38.21 8.49 29.33C8.5655 29.0794 8.53972 28.8091 8.4182 28.5773C8.29667 28.3454 8.08908 28.1705 7.84 28.09Z" fill="black"/>
<path d="M42.24 16.86C42.3614 16.6391 42.3948 16.3804 42.3337 16.1359C42.2725 15.8913 42.1212 15.6789 41.9101 15.5411C41.699 15.4033 41.4437 15.3503 41.1952 15.3928C40.9467 15.4352 40.7234 15.57 40.57 15.77C40.57 15.77 37.76 19.94 31.57 17.51C31.3262 17.4263 31.0596 17.44 30.8257 17.5481C30.5917 17.6563 30.4086 17.8506 30.3144 18.0905C30.2203 18.3304 30.2224 18.5974 30.3203 18.8358C30.4182 19.0742 30.6044 19.2655 30.84 19.37C32.2394 19.9489 33.7357 20.2577 35.25 20.28C36.6014 20.2964 37.9378 19.9955 39.1518 19.4015C40.3658 18.8075 41.4236 17.937 42.24 16.86Z" fill="black"/>
<path d="M66.8 31.23C67.0162 31.3891 67.2867 31.4559 67.552 31.4155C67.6834 31.3956 67.8096 31.3499 67.9234 31.2812C68.0371 31.2125 68.1362 31.122 68.215 31.015C68.2938 30.908 68.3507 30.7865 68.3826 30.6574C68.4144 30.5284 68.4205 30.3944 68.4006 30.263C68.3806 30.1316 68.3349 30.0054 68.2662 29.8916C68.1975 29.7779 68.107 29.6788 68 29.6L62.4 25.6C62.1839 25.4462 61.9154 25.3845 61.6538 25.4286C61.3922 25.4726 61.1588 25.6188 61.005 25.835C60.8512 26.0511 60.7895 26.3195 60.8336 26.5812C60.8777 26.8428 61.0238 27.0762 61.24 27.23L66.8 31.23Z" fill="black"/>
</g>
<defs>
<clipPath id="clip0_1_2">
<rect width="94" height="82" fill="white"/>
</clipPath>
</defs>
</svg>
